<svg width="32" height="32" viewBox="0 0 30 30" fill="#ffffff" xmlns="http://www.w3.org/2000/svg"><path fill-rule="evenodd" clip-rule="evenodd" d="M25.4335 4.70291C22.6988 1.96502 19.0619 0.456562 15.1873 0.454956C7.20348 0.454956 0.705764 6.95249 0.702552 14.9385C0.701482 17.4914 1.36838 19.9834 2.63599 22.18L0.581055 29.6857L8.25967 27.6715C10.3754 28.8256 12.7574 29.4338 15.1815 29.4345H15.1875C23.1705 29.4345 29.6689 22.9365 29.672 14.9501C29.6736 11.0797 28.1683 7.44062 25.4335 4.70291ZM15.1873 26.9883H15.1824C13.0222 26.9875 10.9035 26.4069 9.05484 25.3102L8.61542 25.0492L4.05881 26.2446L5.27504 21.802L4.98869 21.3465C3.78352 19.4296 3.14713 17.2141 3.1482 14.9394C3.1507 8.30163 8.55155 2.90132 15.1922 2.90132C18.4078 2.90239 21.4306 4.15626 23.7036 6.43189C25.9765 8.70751 27.2276 11.7323 27.2265 14.9492C27.2236 21.5875 21.8231 26.9883 15.1873 26.9883ZM21.791 17.9717C21.4292 17.7904 19.6498 16.9151 19.3179 16.7941C18.9864 16.6734 18.7449 16.6132 18.5038 16.9754C18.2624 17.3376 17.5689 18.1529 17.3577 18.3943C17.1465 18.6359 16.9356 18.6662 16.5736 18.4849C16.2116 18.3039 15.0455 17.9215 13.663 16.6885C12.5872 15.7289 11.8609 14.5437 11.6496 14.1815C11.4388 13.819 11.6479 13.642 11.8084 13.4429C12.2002 12.9564 12.5925 12.4463 12.7132 12.2049C12.8339 11.9633 12.7735 11.7519 12.6828 11.5708C12.5925 11.3897 11.8687 9.60831 11.5672 8.88343C11.2732 8.17799 10.9751 8.27326 10.7528 8.2622C10.5419 8.25168 10.3005 8.24953 10.0591 8.24953C9.8179 8.24953 9.42576 8.33999 9.09391 8.70252C8.76225 9.06487 7.82738 9.94033 7.82738 11.7218C7.82738 13.5032 9.12424 15.2241 9.30515 15.4657C9.48606 15.7073 11.8573 19.3629 15.4878 20.9304C16.3513 21.3037 17.0253 21.5261 17.5511 21.6929C18.4182 21.9684 19.2069 21.9295 19.8307 21.8364C20.5261 21.7324 21.9718 20.9608 22.2736 20.1154C22.5751 19.27 22.5751 18.5454 22.4845 18.3943C22.3942 18.2434 22.1529 18.1529 21.791 17.9717Z"/></svg>